<svg width="16" height="15" viewBox="0 0 16 15" fill="none" xmlns="http://www.w3.org/2000/svg">
<path fill-rule="evenodd" clip-rule="evenodd" d="M10.5223 0.0146859C10.5332 -0.000891705 10.5547 -0.00467748 10.5702 0.0062301L11.6353 0.751998C11.6509 0.762905 11.6547 0.784374 11.6438 0.799951L10.1614 2.91701C10.882 3.14725 11.373 3.3956 11.373 3.3956C11.373 3.3956 10.1729 5.45991 8.1374 5.45991C6.10188 5.45991 4.65546 3.53593 4.65546 3.53593C4.65546 3.53593 5.16833 3.20862 5.92859 2.9279L4.30261 0.990164C4.2904 0.975595 4.2923 0.953877 4.30686 0.941654L5.30287 0.105898C5.31746 0.0936744 5.33916 0.0955743 5.35138 0.110142L7.41013 2.56366C7.58641 2.54372 7.766 2.53258 7.94723 2.53258C8.20771 2.53258 8.46787 2.55238 8.72184 2.58599L10.5223 0.0146859ZM10.925 5.55768C11.4682 5.16973 12.2901 4.15717 12.2901 4.15717C12.2901 4.15717 14.3897 5.82094 14.3897 9.34875C14.3897 12.8765 10.7599 14.9998 10.7599 14.9998C10.7599 14.9998 9.02568 13.2484 8.59994 11.0282C8.17422 8.80808 9.2297 6.34286 9.2297 6.34286C9.2297 6.34286 10.3818 5.94562 10.925 5.55768ZM5.07491 5.55768C4.53171 5.16973 3.70976 4.15717 3.70976 4.15717C3.70976 4.15717 1.61023 5.82094 1.61023 9.34875C1.61023 12.8765 5.24 14.9998 5.24 14.9998C5.24 14.9998 6.97422 13.2484 7.39997 11.0282C7.82568 8.80808 6.7702 6.34286 6.7702 6.34286C6.7702 6.34286 5.61813 5.94562 5.07491 5.55768Z" fill="#AFC836"/>
</svg>
