<svg width="29" height="27" viewBox="0 0 29 27" fill="none" xmlns="http://www.w3.org/2000/svg">
<path d="M0 2.9C0 2.13087 0.305535 1.39325 0.84939 0.84939C1.39325 0.305535 2.13087 0 2.9 0H26.1C26.8691 0 27.6068 0.305535 28.1506 0.84939C28.6945 1.39325 29 2.13087 29 2.9V18.85C29 19.6191 28.6945 20.3568 28.1506 20.9006C27.6068 21.4445 26.8691 21.75 26.1 21.75H19.4503L15.5252 25.6752C15.2532 25.947 14.8845 26.0997 14.5 26.0997C14.1155 26.0997 13.7468 25.947 13.4749 25.6752L9.5497 21.75H2.9C2.13087 21.75 1.39325 21.4445 0.84939 20.9006C0.305535 20.3568 0 19.6191 0 18.85V2.9ZM26.1 2.9H2.9V18.85H10.15C10.5345 18.8501 10.9033 19.0029 11.1752 19.2748L14.5 22.5997L17.8249 19.2748C18.0967 19.0029 18.4655 18.8501 18.85 18.85H26.1V2.9ZM5.8 7.975C5.8 7.59044 5.95277 7.22162 6.2247 6.9497C6.49662 6.67777 6.86544 6.525 7.25 6.525H21.75C22.1346 6.525 22.5034 6.67777 22.7753 6.9497C23.0472 7.22162 23.2 7.59044 23.2 7.975C23.2 8.35956 23.0472 8.72838 22.7753 9.0003C22.5034 9.27223 22.1346 9.425 21.75 9.425H7.25C6.86544 9.425 6.49662 9.27223 6.2247 9.0003C5.95277 8.72838 5.8 8.35956 5.8 7.975ZM5.8 13.775C5.8 13.3904 5.95277 13.0216 6.2247 12.7497C6.49662 12.4778 6.86544 12.325 7.25 12.325H15.95C16.3346 12.325 16.7034 12.4778 16.9753 12.7497C17.2472 13.0216 17.4 13.3904 17.4 13.775C17.4 14.1596 17.2472 14.5284 16.9753 14.8003C16.7034 15.0722 16.3346 15.225 15.95 15.225H7.25C6.86544 15.225 6.49662 15.0722 6.2247 14.8003C5.95277 14.5284 5.8 14.1596 5.8 13.775Z" fill="white"/>
</svg>
