<svg width="16" height="15" viewBox="0 0 16 15" fill="none" xmlns="http://www.w3.org/2000/svg">
<path fill-rule="evenodd" clip-rule="evenodd" d="M8.72772 7.46722C8.82938 7.40522 8.91563 7.27532 8.98518 7.13095C9.90056 7.50507 10.5438 8.38913 10.5438 9.42012C10.5438 10.7897 9.40858 11.9001 8.00819 11.9001C7.43333 11.9001 6.90314 11.7129 6.47784 11.3976C6.33833 11.3316 6.22354 11.2681 6.12961 11.2162C5.98392 11.1356 5.88838 11.0828 5.82856 11.0911C5.65369 11.1152 5.70446 11.2761 5.7506 11.4222C5.78192 11.5215 5.81113 11.614 5.76592 11.6522C5.71864 11.6921 5.56547 11.5461 5.3865 11.3754C5.14287 11.1432 4.85142 10.8653 4.71399 10.9487C4.60533 11.0147 4.71083 11.1938 4.83997 11.4129L4.84955 11.4292C4.9041 11.5218 4.96732 11.6162 5.025 11.7022C5.14228 11.8772 5.23673 12.0181 5.18948 12.042C5.13235 12.0708 4.73432 11.8022 4.3989 11.4292C4.26944 11.2852 4.14405 11.1292 4.0275 10.9842V10.9842C3.77242 10.6668 3.5599 10.4024 3.4406 10.4337C3.29709 10.4714 3.40565 10.7674 3.56517 11.0522C3.63976 11.1855 3.72751 11.3211 3.80347 11.4386V11.4386C3.92163 11.6212 4.0113 11.7598 3.97878 11.7769C3.9349 11.7998 3.54874 11.4233 3.28645 10.9487C3.13067 10.6669 2.99986 10.3554 2.89395 10.1032C2.77911 9.82975 2.69356 9.62604 2.63722 9.60554C2.4415 9.53432 2.4415 9.93337 2.52 10.5093C2.53024 10.5845 2.54549 10.6633 2.56427 10.7435C3.32552 13.2066 5.66403 15 8.4308 15C11.8151 15 14.5586 12.3168 14.5586 9.0068C14.5586 5.85645 12.0733 3.27384 8.91575 3.03205C8.91973 2.88364 8.99719 2.58935 8.99719 2.58935C8.99719 2.58935 9.55462 1.24064 9.5841 0.952438C9.58603 0.933311 9.58834 0.912524 9.59083 0.890388C9.62555 0.578991 9.69015 0 9.19205 0C8.92603 0 8.80234 0.19789 8.66087 0.424216V0.424219C8.60655 0.511104 8.5496 0.602183 8.48098 0.687861C7.9868 1.30499 7.15583 2.07565 6.68464 2.48622C5.68873 3.35402 4.71162 4.06723 4.14173 4.48318L4.1417 4.48321C3.88251 4.67238 3.70758 4.80009 3.65344 4.85285C3.24545 5.25059 1.7826 7.88924 1.7826 7.88924C1.7826 7.88924 1.30953 8.7358 1.47768 8.90751C1.64582 9.07919 2.05132 9.03984 2.05132 9.03984C2.05132 9.03984 7.4988 7.79013 7.98651 7.69157C8.11782 7.66503 8.21051 7.64971 8.28167 7.63796C8.47489 7.60606 8.50958 7.60031 8.72772 7.46722ZM4.87615 5.86125C4.58374 6.13919 4.09878 6.80262 4.09878 6.80262C4.09878 6.80262 5.00007 6.85813 5.49645 6.38631C5.99286 5.91445 5.87913 5.11034 5.87913 5.11034C5.87913 5.11034 5.16853 5.58331 4.87615 5.86125Z" fill="#0180C7"/>
</svg>
