<svg width="15" height="15" viewBox="0 0 15 15" fill="none" xmlns="http://www.w3.org/2000/svg">
<g clip-path="url(#clip0_15_239)">
<path fill-rule="evenodd" clip-rule="evenodd" d="M3.00955 11.8939L5.41547 11.1963L7.4935 14.9958C7.49622 15.0007 7.50328 15.0007 7.50598 14.9958L9.584 11.1963L11.99 11.8939C11.9953 11.8954 12.0004 11.8904 11.9987 11.885L11.301 9.52673L14.9958 7.50598C15.0007 7.50328 15.0007 7.49622 14.9958 7.49353L11.2706 5.4561L11.9987 2.99487C12.0004 2.98948 11.9953 2.98447 11.99 2.98603L9.52758 3.70002L7.50598 0.00369692C7.50328 -0.00123222 7.49622 -0.00123235 7.49353 0.0036968L5.47192 3.70002L3.00955 2.98603C3.00416 2.98447 2.99915 2.98948 3.00076 2.99487L3.72894 5.4561L0.00369692 7.49353C-0.00123222 7.49622 -0.00123235 7.50328 0.0036968 7.50598L3.69847 9.52673L3.00076 11.885C2.99915 11.8904 3.00416 11.8954 3.00955 11.8939ZM4.87652 7.52566L6.58099 8.45786L7.51318 10.1623C7.51588 10.1672 7.52297 10.1672 7.52566 10.1623L8.45786 8.45786L10.1623 7.52566C10.1672 7.52297 10.1672 7.51588 10.1623 7.51318L8.45786 6.58099L7.52566 4.87655C7.52297 4.8716 7.51588 4.8716 7.51318 4.87655L6.58099 6.58099L4.87652 7.51318C4.8716 7.51588 4.8716 7.52297 4.87652 7.52566Z" fill="#F3A7E7"/>
</g>
<defs>
<clipPath id="clip0_15_239">
<rect width="15" height="15" fill="white"/>
</clipPath>
</defs>
</svg>
