<svg width="15" height="15" viewBox="0 0 15 15" fill="none" xmlns="http://www.w3.org/2000/svg">
<path fill-rule="evenodd" clip-rule="evenodd" d="M10.3251 11.5838C10.5104 10.9061 10.1507 9.51299 10.1507 9.51299C10.1507 9.51299 9.88975 10.6479 9.48205 11.0674C9.13424 11.4252 8.70811 11.6734 8.09698 11.7386C8.59664 11.4959 8.94026 10.9898 8.94026 10.4049C8.94026 9.58386 8.26315 8.91823 7.4279 8.91823C6.59265 8.91823 5.91551 9.58386 5.91551 10.4049C5.91551 10.6292 5.96604 10.8418 6.05648 11.0325C5.53406 10.6163 5.45191 9.94904 5.45191 9.94904C5.45191 9.94904 4.86855 12.371 6.47596 13.5103C8.08333 14.6496 11.2321 13.6703 11.2321 13.6703C11.2321 13.6703 6.72601 16.8409 3.38692 13.3901C0.510579 10.4175 2.63619 6.50399 2.63619 6.50399C2.63619 6.50399 2.54439 6.86704 2.54439 7.28848C2.54439 7.70991 2.77289 8.03057 2.77289 8.03057C2.77289 8.03057 3.45448 6.59388 3.98493 6.00961C4.48696 5.45666 5.11629 5.00818 5.65986 4.62082C6.07828 4.32264 6.4459 4.06066 6.66545 3.81513C7.87474 2.46295 7.13326 0 7.13326 0C7.13326 0 8.49644 1.20176 8.87701 2.75384C9.02209 3.34547 8.92875 4.01862 8.84531 4.62059C8.70984 5.59781 8.60036 6.38745 9.57902 6.33621C11.1605 6.25339 9.78624 3.81513 9.78624 3.81513C9.78624 3.81513 13.3737 5.70067 13.1057 8.99839C12.8377 12.2961 9.18442 13.0458 9.18442 13.0458C9.18442 13.0458 10.1397 12.2615 10.3251 11.5838Z" fill="#FBAE46"/>
</svg>
