<svg width="15" height="15" viewBox="0 0 15 15" fill="none" xmlns="http://www.w3.org/2000/svg">
<path fill-rule="evenodd" clip-rule="evenodd" d="M5.2357 14C7.43306 14 9.31427 12.7787 10.0909 11.0475C10.1004 11.0264 6.97286 11.8603 7.07259 11.5655C7.11712 11.4339 9.03431 10.7335 10.4311 9.91662C11.2339 9.44708 11.6036 8.45312 11.6036 8.45312C11.6036 8.45312 10.2511 9.10981 9.5673 9.2764C8.18941 9.61214 6.97649 9.57599 6.97649 9.54101C6.97649 9.46536 8.99051 9.08269 11.7898 7.37687C13.1065 6.57452 13.4641 5.19247 13.4641 5.19247C13.4641 5.19247 12.0165 6.05474 11.1414 6.33941C9.06612 7.0145 7.17231 7.21794 7.17231 7.12659C7.17231 6.93101 8.83893 6.47271 10.6059 5.61651C11.5247 5.17135 12.3204 4.58975 13.2424 3.94296C14.7512 2.88473 15 1 15 1C15 1 13.5119 1.95977 12.7857 2.2785C9.78929 3.59368 7.14343 4.28356 5.2357 4.43292C2.35594 4.65839 0 6.66766 0 9.2764C0 11.8852 2.3441 14 5.2357 14Z" fill="#A6C2F2"/>
</svg>
