<svg width="16" height="15" viewBox="0 0 16 15" fill="none" xmlns="http://www.w3.org/2000/svg">
<g clip-path="url(#clip0_15_249)">
<path fill-rule="evenodd" clip-rule="evenodd" d="M11.3091 14.9481C9.95612 15.0173 8.40711 15.0173 7.8807 14.9481C3.77451 14.4079 0.5 11.4057 0.5 7.34766C0.5 3.28966 3.85786 0 8 0C12.1421 0 15.5 3.28966 15.5 7.34766C15.5 9.23499 14.7736 10.9561 13.5799 12.2574C13.2557 12.6108 13.7005 12.8586 14.1524 13.1105C14.5956 13.3575 15.0457 13.6083 14.7841 13.9662C14.4959 14.3605 12.9334 14.8649 11.3091 14.9481ZM6.94531 6.4292C6.94531 7.06324 6.42063 7.57726 5.77344 7.57726C5.12624 7.57726 4.60156 7.06324 4.60156 6.4292C4.60156 6.00395 4.83755 5.63273 5.1882 5.43431C5.20839 5.98717 6.3875 6.4292 6.94531 6.4292ZM10.5774 5.43431C10.5572 5.98717 9.37813 6.42917 8.82031 6.42917C8.82031 7.06321 9.34499 7.57726 9.99219 7.57726C10.6394 7.57726 11.1641 7.06324 11.1641 6.4292C11.1641 6.00395 10.9281 5.63273 10.5774 5.43431Z" fill="#7773D4"/>
</g>
<defs>
<clipPath id="clip0_15_249">
<rect width="15" height="15" fill="white" transform="translate(0.5)"/>
</clipPath>
</defs>
</svg>
