<svg width="13" height="13" viewBox="0 0 13 13" fill="none" xmlns="http://www.w3.org/2000/svg">
<g id="Pokemon Type Icon" clip-path="url(#clip0_46_234)">
<path id="Vector" fill-rule="evenodd" clip-rule="evenodd" d="M2.56783 11.1623C2.52321 11.1203 2.47908 11.0776 2.43546 11.0339C0.132923 8.73142 0.132923 4.99826 2.43546 2.69573C4.73799 0.393188 12.0748 0.239151 12.0748 0.239151C12.0748 0.239151 13.0762 8.73142 10.7737 11.0339C8.72873 13.0789 5.55536 13.3077 3.25794 11.7203L5.10912 9.44855L8.0684 8.80964L5.65276 8.56815L7.18793 7.00506L8.93541 6.62224L7.5536 6.21302L8.93541 3.72027L6.96992 5.92489L6.21092 4.85384L6.47811 6.62224L5.10912 8.16553L4.47453 6.213V8.80964L2.56783 11.1623Z" fill="#5AC178"/>
</g>
<defs>
<clipPath id="clip0_46_234">
<rect width="13" height="13" fill="white"/>
</clipPath>
</defs>
</svg>
