<svg width="16" height="15" viewBox="0 0 16 15" fill="none" xmlns="http://www.w3.org/2000/svg">
<g clip-path="url(#clip0_15_246)">
<path fill-rule="evenodd" clip-rule="evenodd" d="M3.80363 12.8951C3.79956 12.8951 3.79672 12.8911 3.79807 12.8873L7.62761 2.06643C7.62846 2.06407 7.63068 2.0625 7.63317 2.0625H11.7213C11.7238 2.0625 11.7261 2.06409 11.7269 2.06645L15.4996 12.8873C15.5009 12.8912 15.4981 12.8951 15.4941 12.8951H3.91871H3.80363ZM0.505898 12.9375C0.501785 12.9375 0.498937 12.9334 0.50038 12.9295L3.35213 5.31609C3.35299 5.31378 3.35519 5.31226 3.35765 5.31226H5.83549C5.83959 5.31226 5.84243 5.31633 5.84103 5.32017L3.08347 12.9336C3.08262 12.9359 3.08041 12.9375 3.07793 12.9375H0.505898Z" fill="#D29463"/>
</g>
<defs>
<clipPath id="clip0_15_246">
<rect width="15" height="15" fill="white" transform="translate(0.5)"/>
</clipPath>
</defs>
</svg>
