<svg width="16" height="16" viewBox="0 0 16 16" fill="none" xmlns="http://www.w3.org/2000/svg">
<g id="Iconsax/Linear/man" clip-path="url(#clip0_19_533)">
<path id="Vector" d="M14.3334 1.66669L10.6667 5.33335M14.3334 1.66669H10.0001M14.3334 1.66669V6.00002M6.83341 14.3334C7.51191 14.3334 8.18376 14.1997 8.81061 13.9401C9.43746 13.6804 10.007 13.2998 10.4868 12.8201C10.9666 12.3403 11.3471 11.7707 11.6068 11.1439C11.8664 10.517 12.0001 9.84518 12.0001 9.16669C12.0001 8.48819 11.8664 7.81634 11.6068 7.18949C11.3471 6.56264 10.9666 5.99307 10.4868 5.5133C10.007 5.03353 9.43746 4.65296 8.81061 4.39331C8.18376 4.13366 7.51191 4.00002 6.83341 4.00002C5.46313 4.00002 4.14897 4.54436 3.18003 5.5133C2.21109 6.48224 1.66675 7.7964 1.66675 9.16669C1.66675 10.537 2.21109 11.8511 3.18003 12.8201C4.14897 13.789 5.46313 14.3334 6.83341 14.3334Z" stroke="#6CBDE4" stroke-width="1.5" stroke-linecap="round" stroke-linejoin="round"/>
</g>
<defs>
<clipPath id="clip0_19_533">
<rect width="16" height="16" fill="white"/>
</clipPath>
</defs>
</svg>
