<svg width="100" height="100" viewBox="0 0 100 100" fill="none" xmlns="http://www.w3.org/2000/svg">
<g id="Pattern">
<circle id="Ellipse 4" cx="6" cy="6" r="6" fill="white" fill-opacity="0.1"/>
<circle id="Ellipse 4_2" cx="28" cy="6" r="6" fill="white" fill-opacity="0.1"/>
<circle id="Ellipse 4_3" cx="50" cy="6" r="6" fill="white" fill-opacity="0.1"/>
<circle id="Ellipse 4_4" cx="72" cy="6" r="6" fill="white" fill-opacity="0.1"/>
<circle id="Ellipse 4_5" cx="94" cy="6" r="6" fill="white" fill-opacity="0.1"/>
<circle id="Ellipse 4_6" cx="6" cy="28" r="6" fill="white" fill-opacity="0.1"/>
<circle id="Ellipse 4_7" cx="28" cy="28" r="6" fill="white" fill-opacity="0.1"/>
<circle id="Ellipse 4_8" cx="50" cy="28" r="6" fill="white" fill-opacity="0.1"/>
<circle id="Ellipse 4_9" cx="72" cy="28" r="6" fill="white" fill-opacity="0.1"/>
<circle id="Ellipse 4_10" cx="94" cy="28" r="6" fill="white" fill-opacity="0.1"/>
<circle id="Ellipse 4_11" cx="6" cy="50" r="6" fill="white" fill-opacity="0.1"/>
<circle id="Ellipse 4_12" cx="28" cy="50" r="6" fill="white" fill-opacity="0.1"/>
<circle id="Ellipse 4_13" cx="50" cy="50" r="6" fill="white" fill-opacity="0.1"/>
<circle id="Ellipse 4_14" cx="72" cy="50" r="6" fill="white" fill-opacity="0.1"/>
<circle id="Ellipse 4_15" cx="94" cy="50" r="6" fill="white" fill-opacity="0.1"/>
<circle id="Ellipse 4_16" cx="6" cy="72" r="6" fill="white" fill-opacity="0.1"/>
<circle id="Ellipse 4_17" cx="28" cy="72" r="6" fill="white" fill-opacity="0.1"/>
<circle id="Ellipse 4_18" cx="50" cy="72" r="6" fill="white" fill-opacity="0.1"/>
<circle id="Ellipse 4_19" cx="72" cy="72" r="6" fill="white" fill-opacity="0.1"/>
<circle id="Ellipse 4_20" cx="94" cy="72" r="6" fill="white" fill-opacity="0.1"/>
<circle id="Ellipse 4_21" cx="6" cy="94" r="6" fill="white" fill-opacity="0.1"/>
<circle id="Ellipse 4_22" cx="28" cy="94" r="6" fill="white" fill-opacity="0.1"/>
<circle id="Ellipse 4_23" cx="50" cy="94" r="6" fill="white" fill-opacity="0.1"/>
<circle id="Ellipse 4_24" cx="72" cy="94" r="6" fill="white" fill-opacity="0.1"/>
<circle id="Ellipse 4_25" cx="94" cy="94" r="6" fill="white" fill-opacity="0.1"/>
</g>
</svg>
