<svg width="13" height="13" viewBox="0 0 13 13" fill="none" xmlns="http://www.w3.org/2000/svg">
<g id="Pokemon Type Icon" clip-path="url(#clip0_46_232)">
<path id="Vector" fill-rule="evenodd" clip-rule="evenodd" d="M10.8626 9.98992C12.1754 8.94024 13 7.42361 13 5.73701C13 2.56854 10.0899 0 6.5 0C2.91015 0 0 2.56854 0 5.73701C0 7.36272 0.766129 8.8305 1.99711 9.87444C1.9225 10.132 1.88158 10.4122 1.88158 10.7052C1.88158 11.9726 2.6474 13 3.59211 13C4.20596 13 4.74429 12.5662 5.04606 11.9147C5.34782 12.5662 5.88616 13 6.5 13C7.05956 13 7.55635 12.6396 7.86843 12.0823C8.1805 12.6396 8.6773 13 9.23683 13C10.1815 13 10.9474 11.9726 10.9474 10.7052C10.9474 10.4555 10.9176 10.215 10.8626 9.98992ZM10.2632 5.85079C10.2632 7.45938 8.54004 8.76342 6.41448 8.76342C4.28891 8.76342 2.5658 7.45938 2.5658 5.85079C2.5658 4.24219 4.28891 2.93815 6.41448 2.93815C8.54004 2.93815 10.2632 4.24219 10.2632 5.85079Z" fill="#C261D4"/>
</g>
<defs>
<clipPath id="clip0_46_232">
<rect width="13" height="13" fill="white"/>
</clipPath>
</defs>
</svg>
