<svg width="254" height="253" viewBox="0 0 254 253" fill="none" xmlns="http://www.w3.org/2000/svg">
<g id="Group 2">
<circle id="Ellipse 5" cx="123.038" cy="126.473" r="40.97" fill="white" fill-opacity="0.1"/>
<path id="Exclude" fill-rule="evenodd" clip-rule="evenodd" d="M216.031 37.043C239.749 60.7612 253.074 92.93 253.074 126.473L253.072 126.473C253.051 120.489 252.485 114.426 251.428 106.878H199.911C196.497 94.1039 189.771 82.3267 180.259 72.8148C166.028 58.5839 146.727 50.589 126.601 50.589C106.475 50.589 87.1741 58.5839 72.9431 72.8148C63.2677 82.4903 56.4748 94.5096 53.1174 107.538C53.1645 107.319 53.2123 107.1 53.2609 106.878H1.65486C5.77684 80.5929 18.1219 56.0924 37.1713 37.043C60.8895 13.3247 93.0583 -2.5324e-06 126.601 0C160.144 2.5324e-06 192.312 13.3248 216.031 37.043ZM1.55334 107.537C1.5866 107.317 1.62045 107.098 1.65486 106.878H1.64481C1.6139 107.099 1.58341 107.319 1.55334 107.537ZM1.55334 107.537C1.19858 110.113 0.90245 112.517 0.667165 114.806C0.892739 112.37 1.18852 109.946 1.55334 107.537ZM0.926819 140.666C0.397254 135.976 0.128267 131.238 0.128267 126.473L0.128313 126.473C0.128314 122.561 0.30948 118.669 0.667165 114.806C-0.279628 124.02 -0.241178 131.384 0.926819 140.666ZM54.2027 149.207C54.241 149.347 54.2796 149.488 54.3185 149.63H2.28497C1.72824 146.402 1.27682 143.448 0.926819 140.666C4.12446 168.986 16.8229 195.554 37.1712 215.902C60.8895 239.62 93.0582 252.945 126.601 252.945C160.143 252.945 192.312 239.62 216.031 215.902C239.073 192.859 252.306 161.84 253.041 129.335C253.063 128.48 253.074 127.628 253.073 126.776C253.073 126.675 253.073 126.574 253.073 126.473H253.072L202.484 126.473C202.484 119.799 201.605 113.216 199.911 106.878H199.812C203.863 125.329 202.802 134.909 198.755 149.63H198.865C195.212 161.028 188.88 171.51 180.259 180.13C166.028 194.361 146.726 202.356 126.601 202.356C106.475 202.356 87.174 194.361 72.9431 180.13C64.2157 171.403 57.8336 160.769 54.2027 149.207ZM54.2027 149.207C52.7514 144.585 51.7397 139.816 51.1933 134.961C51.7585 139.496 52.7929 144.039 54.2027 149.207ZM50.7046 126.473C50.6762 129.395 50.8463 132.177 51.1933 134.961C50.8776 132.156 50.7173 129.323 50.7173 126.473L50.7046 126.473ZM50.7263 125.304C50.8193 119.261 51.6323 113.301 53.1174 107.538C51.627 114.457 50.8687 120.124 50.7263 125.304ZM50.7263 125.304C50.7156 125.696 50.7083 126.086 50.7046 126.473H50.7174C50.7174 126.083 50.7204 125.693 50.7263 125.304ZM253.041 129.335C252.885 135.451 252.153 141.718 250.788 149.63H198.865C201.242 142.212 202.484 134.406 202.484 126.473L253.072 126.473C253.073 126.574 253.073 126.675 253.073 126.776C253.071 127.63 253.06 128.483 253.041 129.335Z" fill="white" fill-opacity="0.1"/>
</g>
</svg>
