<svg width="15" height="15" viewBox="0 0 15 15" fill="none" xmlns="http://www.w3.org/2000/svg">
<g clip-path="url(#clip0_15_238)">
<path fill-rule="evenodd" clip-rule="evenodd" d="M13.3656 12.4582C13.3656 12.4582 11.4742 13.9752 7.71037 13.3474C4.8548 12.8712 3.33177 9.72332 3.33177 8.03131C3.33177 4.01969 6.30089 3.10677 8.30823 3.10677C10.3155 3.10677 11.625 5.0638 11.625 6.57903C11.625 8.09427 10.5533 9.4196 8.88555 9.4196C7.2178 9.4196 6.72385 8.24875 6.72385 7.17229C6.72385 6.09587 7.59476 5.71662 8.38903 5.71662C9.1833 5.71662 9.45526 6.39472 9.45526 6.97753C9.45526 7.56036 9.00306 7.76907 8.62589 7.76907C8.24873 7.76907 8.21143 7.57879 8.06708 7.37881C7.92271 7.17886 8.25119 6.42194 7.71037 6.42194C7.16955 6.42194 7.06874 7.29209 7.06874 7.29209C7.06874 7.29209 7.2659 8.97177 8.88555 8.94279C10.5052 8.91379 11.2736 7.66164 11.0503 6.42194C10.827 5.18221 9.62386 3.86488 7.51232 4.13107C5.40078 4.39726 4.53866 6.53078 4.91867 8.81078C5.29868 11.0908 8.03011 12.4119 10.1777 11.9366C12.3254 11.4613 14.4643 9.90651 14.4643 5.96453C14.4643 2.02252 11.0503 -0.34699 6.97935 0.0435173C2.9084 0.434023 0.381342 3.99311 0.543096 8.26943C0.70485 12.5458 4.76257 14.8748 8.19379 14.9948C11.625 15.1149 13.7285 13.1286 13.7285 13.1286C13.7285 13.1286 14.2016 12.7068 14.0161 12.3774C13.8306 12.0479 13.3656 12.4582 13.3656 12.4582Z" fill="#FE9F92"/>
</g>
<defs>
<clipPath id="clip0_15_238">
<rect width="15" height="15" fill="white"/>
</clipPath>
</defs>
</svg>
