<svg width="15" height="15" viewBox="0 0 15 15" fill="none" xmlns="http://www.w3.org/2000/svg">
<g clip-path="url(#clip0_15_236)">
<path fill-rule="evenodd" clip-rule="evenodd" d="M11.6056 7.58858C11.6048 7.58741 11.6044 7.58595 11.6046 7.58451L12.5616 2.00445C12.562 2.00188 12.5643 2 12.5669 2H12.8697C12.8721 2 12.8741 2.00151 12.8748 2.00374L15.0308 8.83001C15.0315 8.83212 15.0307 8.83446 15.029 8.83584L13.4394 10.0769C13.437 10.0788 13.4336 10.0783 13.4318 10.0759L11.6056 7.58858ZM0 11.2878C0 11.2901 0.00148816 11.2921 0.00368821 11.2929L3.28052 12.3643C3.2821 12.3648 3.28386 12.3645 3.28523 12.3636L10.6097 7.30695C10.6109 7.3061 10.6118 7.30479 10.612 7.30332L11.3974 2.03306C11.3979 2.02982 11.3954 2.02692 11.3921 2.02692H4.90447C4.90286 2.02692 4.90137 2.02763 4.90034 2.02885L0.00123123 7.93889C0.000435351 7.93985 0 7.94105 0 7.94231V11.2878ZM4.64599 12.6373L8.22586 13.8099C8.22747 13.8104 8.22926 13.8102 8.23063 13.8092L12.4927 10.752C12.4951 10.7503 12.4957 10.7471 12.4941 10.7446L10.8963 8.36706C10.8947 8.36457 10.8913 8.36393 10.8889 8.36562L4.64599 12.6373Z" fill="#D7CD90"/>
</g>
<defs>
<clipPath id="clip0_15_236">
<rect width="15" height="15" fill="white"/>
</clipPath>
</defs>
</svg>
