<svg width="17" height="17" viewBox="0 0 17 17" fill="none" xmlns="http://www.w3.org/2000/svg">
<path d="M16.2056 8.10235C16.2055 8.25279 16.1635 8.40024 16.0844 8.52818C16.0052 8.65612 15.892 8.75951 15.7575 8.82675L1.17223 16.1194C1.03535 16.1877 0.881933 16.2158 0.729726 16.2006C0.577518 16.1853 0.432736 16.1273 0.312122 16.0332C0.191508 15.9391 0.0999883 15.8128 0.0481489 15.6689C-0.00369052 15.525 -0.0137328 15.3693 0.019183 15.22L1.60087 8.10235L0.019183 0.985561C-0.0139261 0.836117 -0.00402835 0.680351 0.0477301 0.5363C0.0994885 0.392248 0.19099 0.265803 0.311641 0.171606C0.432292 0.0774085 0.577156 0.0193118 0.72946 0.00404228C0.881764 -0.0112272 1.03528 0.0169552 1.17223 0.0853266L15.7575 7.37795C15.892 7.4452 16.0052 7.54858 16.0844 7.67652C16.1635 7.80446 16.2055 7.95191 16.2056 8.10235ZM3.08046 8.91264L1.97036 13.9089L11.9629 8.91264H3.08046ZM11.9629 7.29206L1.97036 2.2958L3.08046 7.29206H11.9629Z" fill="#777777"/>
</svg>
