<svg width="15" height="15" viewBox="0 0 15 15" fill="none" xmlns="http://www.w3.org/2000/svg">
<path fill-rule="evenodd" clip-rule="evenodd" d="M0.00149738 7.46075C-0.000498182 7.45735 -0.000499184 7.45313 0.00149471 7.44971L3.77329 1.0054C3.77525 1.00206 3.77886 1 3.78273 1H11.2586C11.2625 1 11.2661 1.00207 11.2681 1.00545L14.9985 7.44977C15.0005 7.45313 15.0005 7.45732 14.9985 7.46069L11.2681 13.8978C11.2661 13.9011 11.2625 13.9032 11.2586 13.9032H3.78273C3.77886 13.9032 3.77525 13.9012 3.77329 13.8978L0.00149738 7.46075ZM10.9751 7.45161C10.9751 9.3702 9.41977 10.9255 7.50117 10.9255C5.58258 10.9255 4.02724 9.3702 4.02724 7.45161C4.02724 5.53299 5.58258 3.97768 7.50117 3.97768C9.41977 3.97768 10.9751 5.53299 10.9751 7.45161Z" fill="#58A6AA"/>
</svg>
