<svg width="15" height="15" viewBox="0 0 15 15" fill="none" xmlns="http://www.w3.org/2000/svg">
<path fill-rule="evenodd" clip-rule="evenodd" d="M12.3658 10.1518C12.3658 12.829 10.1873 14.9993 7.49996 14.9993C4.81264 14.9993 2.63416 12.829 2.63416 10.1518C2.63416 7.54802 7.23675 0.396911 7.48917 0.00667412C7.49495 -0.00222476 7.505 -0.00222468 7.51074 0.00667421C7.76316 0.396911 12.3658 7.54802 12.3658 10.1518ZM6.68884 13.4452C4.2197 12.905 4.64222 10.1698 4.64222 10.1698C4.64222 10.1698 5.31646 11.8209 6.95266 12.3558C8.58883 12.8906 10.5661 12.1062 10.5661 12.1062C10.5661 12.1062 9.15798 13.9855 6.68884 13.4452Z" fill="#6CBDE4"/>
</svg>
